# xmcd CD database file
#
# Track frame offsets:
#	150
#	14842
#	32020
#	53962
#	79460
#	95765
#	119045
#	138220
#	158625
#	177795
#	193905
#	214522
#
# Disc length: 3165 seconds
#
# Revision: 1
# Processed by: cddbd v1.5.2PL0 Copyright (c) Steve Scherf et al.
# Submitted via: CDex 1.81
#
DISCID=ac0c5b0c
DTITLE=Tropical Jazz Big Band - 17-The Best from Movies
DYEAR=2015
DGENRE=Jazz
TTITLE0=Mission Impossible
TTITLE1=007 - The James Bond Theme
TTITLE2=Charade
TTITLE3=Lupin The Third
TTITLE4=Get Me To The Church On Time
TTITLE5=My Favorite Things
TTITLE6=The Windmills Of Your Mind
TTITLE7=Theme From SWAT
TTITLE8=I Could Have Danced All Night
TTITLE9=Napoleon Solo
TTITLE10=Little Brown Jug
TTITLE11=Star Trek
EXTD=YEAR: 2015
EXTT0=
EXTT1=
EXTT2=
EXTT3=
EXTT4=
EXTT5=
EXTT6=
EXTT7=
EXTT8=
EXTT9=
EXTT10=
EXTT11=
PLAYORDER=
